<svg width="100" height="110" viewBox="0 0 100 110" xmlns="http://www.w3.org/2000/svg">
  <defs>
    <linearGradient id="face-top" x1="0" y1="0" x2="0" y2="1">
      <stop offset="0%" stop-color="#334155" />
      <stop offset="100%" stop-color="#1e293b" />
    </linearGradient>
    <linearGradient id="face-left" x1="0" y1="0" x2="1" y2="0">
      <stop offset="0%" stop-color="#1e293b" />
      <stop offset="100%" stop-color="#0f172a" />
    </linearGradient>
    <linearGradient id="face-right" x1="0" y1="0" x2="1" y2="0">
      <stop offset="0%" stop-color="#0f172a" />
      <stop offset="100%" stop-color="#1e293b" />
    </linearGradient>
    <linearGradient id="a-letter" x1="0" y1="0" x2="0" y2="1">
      <stop offset="0%" stop-color="#22d3ee" />
      <stop offset="100%" stop-color="#06b6d4" />
    </linearGradient>
  </defs>
  <polygon points="50,5 90,25 50,45 10,25" fill="url(#face-top)" />
  <polygon points="10,25 50,45 50,95 10,75" fill="url(#face-left)" />
  <polygon points="90,25 50,45 50,95 90,75" fill="url(#face-right)" />
  <polygon points="28,72 38,44 50,44 50,55 44,55 40,72" fill="url(#a-letter)" />
  <polygon points="72,72 62,44 50,44 50,55 56,55 60,72" fill="url(#a-letter)" opacity="0.85" />
  <polygon points="43,62 57,62 58,66 42,66" fill="url(#a-letter)" />
  <polygon points="46,66 54,66 50,52" fill="#0f172a" />
</svg>
